<mxfile host="Electron" agent="Mozilla/5.0 (X11; Linux x86_64) AppleWebKit/537.36 (KHTML, like Gecko) draw.io/28.1.2 Chrome/138.0.7204.251 Electron/37.5.1 Safari/537.36" version="28.1.2">
  <diagram name="Page-1" id="64VUHiy4QtOV5SFQbVTk">
    <mxGraphModel dx="1426" dy="840" grid="1" gridSize="10" guides="1" tooltips="1" connect="1" arrows="1" fold="1" page="1" pageScale="1" pageWidth="850" pageHeight="1100" math="0" shadow="0">
      <root>
        <mxCell id="0" />
        <mxCell id="1" parent="0" />
        <mxCell id="v6ILC4ubKLe7pIRkuzFk-1" value="" style="rounded=0;whiteSpace=wrap;html=1;fillColor=#FFFFFF;" parent="1" vertex="1">
          <mxGeometry y="260" width="840" height="440" as="geometry" />
        </mxCell>
        <mxCell id="v6ILC4ubKLe7pIRkuzFk-2" value="" style="image;html=1;image=img/lib/clip_art/networking/Router_Icon_128x128.png" parent="1" vertex="1">
          <mxGeometry x="20" y="430" width="100" height="100" as="geometry" />
        </mxCell>
        <mxCell id="v6ILC4ubKLe7pIRkuzFk-3" value="" style="image;html=1;image=img/lib/clip_art/networking/Router_Icon_128x128.png" parent="1" vertex="1">
          <mxGeometry x="360" y="430" width="100" height="100" as="geometry" />
        </mxCell>
        <mxCell id="v6ILC4ubKLe7pIRkuzFk-4" value="" style="fontColor=#0066CC;verticalAlign=top;verticalLabelPosition=bottom;labelPosition=center;align=center;html=1;outlineConnect=0;fillColor=#CCCCCC;strokeColor=#6881B3;gradientColor=none;gradientDirection=north;strokeWidth=2;shape=mxgraph.networks.pc;" parent="1" vertex="1">
          <mxGeometry x="660" y="310" width="130" height="100" as="geometry" />
        </mxCell>
        <mxCell id="v6ILC4ubKLe7pIRkuzFk-5" value="&lt;font style=&quot;font-size: 20px; color: rgb(0, 0, 0);&quot;&gt;S1&lt;/font&gt;" style="text;html=1;align=center;verticalAlign=middle;whiteSpace=wrap;rounded=0;strokeColor=none;strokeWidth=0;dashed=1;dashPattern=8 8;" parent="1" vertex="1">
          <mxGeometry x="687" y="320" width="100" height="60" as="geometry" />
        </mxCell>
        <mxCell id="v6ILC4ubKLe7pIRkuzFk-6" value="&lt;font style=&quot;font-size: 15px; color: rgb(0, 0, 0);&quot;&gt;10.30.200.1/24&lt;/font&gt;" style="text;html=1;align=center;verticalAlign=middle;whiteSpace=wrap;rounded=0;dashed=1;dashPattern=1 4;strokeColor=#000000;" parent="1" vertex="1">
          <mxGeometry x="700" y="280" width="110" height="30" as="geometry" />
        </mxCell>
        <mxCell id="v6ILC4ubKLe7pIRkuzFk-7" value="" style="fontColor=#0066CC;verticalAlign=top;verticalLabelPosition=bottom;labelPosition=center;align=center;html=1;outlineConnect=0;fillColor=#CCCCCC;strokeColor=#6881B3;gradientColor=none;gradientDirection=north;strokeWidth=2;shape=mxgraph.networks.pc;" parent="1" vertex="1">
          <mxGeometry x="657" y="550" width="130" height="100" as="geometry" />
        </mxCell>
        <mxCell id="v6ILC4ubKLe7pIRkuzFk-8" value="&lt;font style=&quot;font-size: 20px; color: rgb(0, 0, 0);&quot;&gt;S2&lt;/font&gt;" style="text;html=1;align=center;verticalAlign=middle;whiteSpace=wrap;rounded=0;strokeColor=none;strokeWidth=0;dashed=1;dashPattern=8 8;" parent="1" vertex="1">
          <mxGeometry x="684" y="560" width="100" height="60" as="geometry" />
        </mxCell>
        <mxCell id="v6ILC4ubKLe7pIRkuzFk-9" value="&lt;font style=&quot;font-size: 15px; color: rgb(0, 0, 0);&quot;&gt;10.30.100.1/24&lt;/font&gt;" style="text;html=1;align=center;verticalAlign=middle;whiteSpace=wrap;rounded=0;dashed=1;dashPattern=1 4;strokeColor=#000000;" parent="1" vertex="1">
          <mxGeometry x="697" y="520" width="103" height="30" as="geometry" />
        </mxCell>
        <mxCell id="v6ILC4ubKLe7pIRkuzFk-10" value="" style="endArrow=none;html=1;rounded=0;strokeColor=#000000;strokeWidth=4;entryX=0;entryY=0.5;entryDx=0;entryDy=0;exitX=1;exitY=0.5;exitDx=0;exitDy=0;" parent="1" source="v6ILC4ubKLe7pIRkuzFk-2" target="v6ILC4ubKLe7pIRkuzFk-3" edge="1">
          <mxGeometry width="50" height="50" relative="1" as="geometry">
            <mxPoint x="130" y="380" as="sourcePoint" />
            <mxPoint x="520" y="380" as="targetPoint" />
          </mxGeometry>
        </mxCell>
        <mxCell id="v6ILC4ubKLe7pIRkuzFk-11" value="" style="endArrow=none;html=1;rounded=0;strokeColor=#000000;strokeWidth=4;entryX=0;entryY=0.5;entryDx=0;entryDy=0;exitX=0.9;exitY=0.3;exitDx=0;exitDy=0;entryPerimeter=0;exitPerimeter=0;" parent="1" source="v6ILC4ubKLe7pIRkuzFk-3" target="v6ILC4ubKLe7pIRkuzFk-4" edge="1">
          <mxGeometry width="50" height="50" relative="1" as="geometry">
            <mxPoint x="450" y="350" as="sourcePoint" />
            <mxPoint x="690" y="350" as="targetPoint" />
          </mxGeometry>
        </mxCell>
        <mxCell id="v6ILC4ubKLe7pIRkuzFk-12" value="" style="endArrow=none;html=1;rounded=0;strokeColor=#000000;strokeWidth=4;entryX=0;entryY=0.5;entryDx=0;entryDy=0;exitX=0.9;exitY=0.7;exitDx=0;exitDy=0;entryPerimeter=0;exitPerimeter=0;" parent="1" source="v6ILC4ubKLe7pIRkuzFk-3" target="v6ILC4ubKLe7pIRkuzFk-7" edge="1">
          <mxGeometry width="50" height="50" relative="1" as="geometry">
            <mxPoint x="550" y="520" as="sourcePoint" />
            <mxPoint x="750" y="400" as="targetPoint" />
          </mxGeometry>
        </mxCell>
        <mxCell id="v6ILC4ubKLe7pIRkuzFk-13" value="&lt;font style=&quot;font-size: 15px; color: rgb(0, 0, 0);&quot;&gt;8.8.8.1/24&lt;/font&gt;" style="text;html=1;align=center;verticalAlign=middle;whiteSpace=wrap;rounded=0;dashed=1;dashPattern=1 4;strokeColor=#000000;" parent="1" vertex="1">
          <mxGeometry x="25" y="414" width="90" height="30" as="geometry" />
        </mxCell>
        <mxCell id="v6ILC4ubKLe7pIRkuzFk-14" value="&lt;font style=&quot;font-size: 20px; color: rgb(0, 0, 0);&quot;&gt;R1&lt;/font&gt;" style="text;html=1;align=center;verticalAlign=middle;whiteSpace=wrap;rounded=0;strokeColor=none;strokeWidth=0;dashed=1;dashPattern=8 8;" parent="1" vertex="1">
          <mxGeometry x="20" y="510" width="100" height="30" as="geometry" />
        </mxCell>
        <mxCell id="v6ILC4ubKLe7pIRkuzFk-15" value="&lt;font style=&quot;font-size: 20px; color: rgb(0, 0, 0);&quot;&gt;R2&lt;/font&gt;" style="text;html=1;align=center;verticalAlign=middle;whiteSpace=wrap;rounded=0;strokeColor=none;strokeWidth=0;dashed=1;dashPattern=8 8;" parent="1" vertex="1">
          <mxGeometry x="360" y="510" width="100" height="30" as="geometry" />
        </mxCell>
        <mxCell id="v6ILC4ubKLe7pIRkuzFk-16" value="&lt;font style=&quot;color: rgb(0, 0, 0); font-size: 18px;&quot;&gt;eth1&lt;/font&gt;" style="text;html=1;align=center;verticalAlign=middle;whiteSpace=wrap;rounded=0;strokeColor=#000000;dashed=1;" parent="1" vertex="1">
          <mxGeometry x="120" y="447" width="40" height="30" as="geometry" />
        </mxCell>
        <mxCell id="v6ILC4ubKLe7pIRkuzFk-17" value="&lt;font style=&quot;color: rgb(0, 0, 0); font-size: 18px;&quot;&gt;eth1&lt;/font&gt;" style="text;html=1;align=center;verticalAlign=middle;whiteSpace=wrap;rounded=0;strokeColor=#000000;dashed=1;" parent="1" vertex="1">
          <mxGeometry x="320" y="447" width="40" height="30" as="geometry" />
        </mxCell>
        <mxCell id="v6ILC4ubKLe7pIRkuzFk-18" value="&lt;font style=&quot;color: rgb(0, 0, 0); font-size: 18px;&quot;&gt;eth2&lt;/font&gt;" style="text;html=1;align=center;verticalAlign=middle;whiteSpace=wrap;rounded=0;strokeColor=#000000;dashed=1;" parent="1" vertex="1">
          <mxGeometry x="425" y="417" width="40" height="30" as="geometry" />
        </mxCell>
        <mxCell id="v6ILC4ubKLe7pIRkuzFk-19" value="&lt;font style=&quot;color: rgb(0, 0, 0); font-size: 18px;&quot;&gt;eth3&lt;/font&gt;" style="text;html=1;align=center;verticalAlign=middle;whiteSpace=wrap;rounded=0;strokeColor=#000000;dashed=1;" parent="1" vertex="1">
          <mxGeometry x="465" y="475" width="40" height="30" as="geometry" />
        </mxCell>
        <mxCell id="v6ILC4ubKLe7pIRkuzFk-20" value="&lt;font style=&quot;color: rgb(0, 0, 0); font-size: 18px;&quot;&gt;eth1&lt;/font&gt;" style="text;html=1;align=center;verticalAlign=middle;whiteSpace=wrap;rounded=0;strokeColor=#000000;dashed=1;" parent="1" vertex="1">
          <mxGeometry x="617" y="327" width="40" height="30" as="geometry" />
        </mxCell>
        <mxCell id="v6ILC4ubKLe7pIRkuzFk-21" value="&lt;font style=&quot;color: rgb(0, 0, 0); font-size: 18px;&quot;&gt;eth1&lt;/font&gt;" style="text;html=1;align=center;verticalAlign=middle;whiteSpace=wrap;rounded=0;strokeColor=#000000;dashed=1;" parent="1" vertex="1">
          <mxGeometry x="614" y="601" width="40" height="30" as="geometry" />
        </mxCell>
      </root>
    </mxGraphModel>
  </diagram>
</mxfile>
